<svg xmlns="http://www.w3.org/2000/svg" viewBox="0 0 809.81 819.84"><defs><style>.cls-1{opacity:0.17;}.cls-2{fill:#99a2d2;opacity:0.23;}.cls-3{fill:#9ca2d1;}.cls-4{fill:#97a0d1;}.cls-12,.cls-15,.cls-5,.cls-6,.cls-7,.cls-8,.cls-9{fill:none;stroke-miterlimit:10;}.cls-5,.cls-6,.cls-7{stroke:#9ea5ce;}.cls-5{stroke-width:6px;}.cls-15,.cls-6{stroke-width:7px;}.cls-7{stroke-width:5px;}.cls-8{stroke:#99a1d1;}.cls-8,.cls-9{stroke-width:8px;}.cls-12,.cls-9{stroke:#9aa3d2;}.cls-10{font-size:52.41px;font-family:Poppins-SemiBold, Poppins;font-weight:700;}.cls-10,.cls-11{fill:#99a1d1;}.cls-12{stroke-width:10px;}.cls-13{fill:#959cce;}.cls-14{fill:#969fd0;}.cls-15{stroke:#9ea5cc;}</style></defs><title>no-data-shown</title><g id="Jadinya"><path class="cls-2" d="M139.15,490.44s24.9-77.23,54.59-92.48c34-17.48,116.46-31.33,116.46-31.33s93.17-38,118.79-67.91S528,193.1,587.38,171,702.91,134.66,755,153.51c61.2,22.12,118.84,74.53,138.35,123.73s51.53,97.69,51.53,182.92-14.55,167.24-48.33,199.6-58.81,73.71-123.44,80.12-170-29.12-191.58-29.7S507,692.71,431.32,731.72s-157.8,33.19-190.41,27.95-92-71.45-99-115.5S132.17,519.87,139.15,490.44Z" transform="translate(-135.1 -144.74)"/><g id="CheckList"><rect class="cls-3" x="396.32" y="490.71" width="9.88" height="32.47" rx="4.94" ry="4.94" transform="translate(-376.03 287.48) rotate(-45)"/><rect class="cls-3" x="417.97" y="477.01" width="9.88" height="48.52" rx="4.94" ry="4.94" transform="translate(343.22 -296.96) rotate(45)"/></g><g id="CheckList-2" data-name="CheckList"><rect class="cls-3" x="396.32" y="643.53" width="9.88" height="32.47" rx="4.94" ry="4.94" transform="translate(-484.09 332.24) rotate(-45)"/><rect class="cls-3" x="417.97" y="629.83" width="9.88" height="48.52" rx="4.94" ry="4.94" transform="translate(451.28 -252.2) rotate(45)"/></g><rect class="cls-4" x="565.66" y="403.78" width="9.88" height="159.83" rx="1.41" ry="1.41" transform="translate(919.2 -231.65) rotate(90)"/><rect class="cls-4" x="565.66" y="438.38" width="9.88" height="159.83" rx="1.41" ry="1.41" transform="translate(953.8 -197.05) rotate(90)"/><rect class="cls-4" x="565.66" y="559.31" width="9.88" height="159.83" rx="1.41" ry="1.41" transform="translate(1074.73 -76.12) rotate(90)"/><rect class="cls-4" x="565.66" y="594.21" width="9.88" height="159.83" rx="1.41" ry="1.41" transform="translate(1109.64 -41.22) rotate(90)"/><circle class="cls-5" cx="53.41" cy="306.17" r="12.48"/><circle class="cls-6" cx="67.96" cy="589.6" r="15.66"/><circle class="cls-7" cx="777.2" cy="431.98" r="8.66"/><path class="cls-8" d="M670.64,523.23,822.9,371s10.63-13,23.6,0l37.42,37.42s10.26,11.43,0,21.7L734.07,579.94l-83.55,21.35Z" transform="translate(-135.1 -144.74)"/><line class="cls-8" x1="665.97" y1="248.08" x2="726.03" y2="308.14"/><path class="cls-9" d="M669.37,528.24h29.22v23H724.8v31l-74.28,19Z" transform="translate(-135.1 -144.74)"/><text class="cls-10" transform="translate(178.56 788.76)">No shown data ...</text><rect class="cls-11" x="767.44" y="134.11" width="5.24" height="34.5" rx="2.62" ry="2.62"/><rect class="cls-11" x="902.53" y="278.84" width="5.24" height="34.5" rx="2.62" ry="2.62" transform="translate(1066.15 -753.8) rotate(90)"/><rect class="cls-11" x="632.98" y="46.54" width="4.68" height="30.79" rx="2.34" ry="2.34"/><rect class="cls-11" x="768.08" y="191.28" width="4.68" height="30.79" rx="2.34" ry="2.34" transform="translate(842 -708.48) rotate(90)"/><rect class="cls-11" x="131.13" y="426.63" width="3.92" height="25.8" rx="1.96" ry="1.96"/><rect class="cls-11" x="266.23" y="571.37" width="3.92" height="25.8" rx="1.96" ry="1.96" transform="translate(717.36 171.34) rotate(90)"/><rect id="Square" class="cls-12" x="191.4" y="91.92" width="379.09" height="530.02" rx="26" ry="26"/><rect class="cls-13" x="344.26" y="246.01" width="77.74" height="14.42" rx="7.21" ry="7.21"/><circle class="cls-14" cx="330.45" cy="192.33" r="12.09"/><circle class="cls-14" cx="430.89" cy="192.33" r="12.09"/><rect class="cls-15" x="239.1" y="315.42" width="78.78" height="78.78" rx="2" ry="2"/><rect class="cls-15" x="239.1" y="472.52" width="78.78" height="78.78" rx="2" ry="2"/></g></svg>